<svg width="16" height="16" viewBox="0 0 16 16" fill="none" xmlns="http://www.w3.org/2000/svg">
<path d="M12.6667 5.616V4.66667C12.6667 3.42899 12.175 2.242 11.2998 1.36684C10.4247 0.491665 9.23769 0 8.00001 0C6.76233 0 5.57535 0.491665 4.70018 1.36684C3.82501 2.242 3.33334 3.42899 3.33334 4.66667V5.616C2.73958 5.87514 2.23421 6.30168 1.87901 6.84347C1.52381 7.38527 1.3342 8.01882 1.33334 8.66667V12.6667C1.3344 13.5504 1.68593 14.3976 2.31082 15.0225C2.93572 15.6474 3.78295 15.9989 4.66668 16H11.3333C12.2171 15.9989 13.0643 15.6474 13.6892 15.0225C14.3141 14.3976 14.6656 13.5504 14.6667 12.6667V8.66667C14.6658 8.01882 14.4762 7.38527 14.121 6.84347C13.7658 6.30168 13.2604 5.87514 12.6667 5.616ZM4.66668 4.66667C4.66668 3.78261 5.01787 2.93477 5.64299 2.30964C6.26811 1.68452 7.11596 1.33333 8.00001 1.33333C8.88407 1.33333 9.73191 1.68452 10.357 2.30964C10.9822 2.93477 11.3333 3.78261 11.3333 4.66667V5.33333H4.66668V4.66667ZM13.3333 12.6667C13.3333 13.1971 13.1226 13.7058 12.7476 14.0809C12.3725 14.456 11.8638 14.6667 11.3333 14.6667H4.66668C4.13624 14.6667 3.62754 14.456 3.25246 14.0809C2.87739 13.7058 2.66668 13.1971 2.66668 12.6667V8.66667C2.66668 8.13623 2.87739 7.62753 3.25246 7.25245C3.62754 6.87738 4.13624 6.66667 4.66668 6.66667H11.3333C11.8638 6.66667 12.3725 6.87738 12.7476 7.25245C13.1226 7.62753 13.3333 8.13623 13.3333 8.66667V12.6667Z" fill="#CACACA"></path>
<path d="M8.00016 9.33301C7.82335 9.33301 7.65378 9.40325 7.52876 9.52827C7.40373 9.65329 7.3335 9.82286 7.3335 9.99967V11.333C7.3335 11.5098 7.40373 11.6794 7.52876 11.8044C7.65378 11.9294 7.82335 11.9997 8.00016 11.9997C8.17697 11.9997 8.34654 11.9294 8.47157 11.8044C8.59659 11.6794 8.66683 11.5098 8.66683 11.333V9.99967C8.66683 9.82286 8.59659 9.65329 8.47157 9.52827C8.34654 9.40325 8.17697 9.33301 8.00016 9.33301Z" fill="#CACACA"></path>
</svg>
