<svg width="13" height="14" viewBox="0 0 13 14" fill="none" xmlns="http://www.w3.org/2000/svg">
<path d="M4 0.5V2.25M8.66667 0.5V2.25M9.54167 4.58333H3.125M4 7.20833C4 7.36942 3.86942 7.5 3.70833 7.5C3.54725 7.5 3.41667 7.36942 3.41667 7.20833M4 7.20833C4 7.04725 3.86942 6.91667 3.70833 6.91667C3.54725 6.91667 3.41667 7.04725 3.41667 7.20833M4 7.20833H3.41667M4 9.54167C4 9.70275 3.86942 9.83333 3.70833 9.83333C3.54725 9.83333 3.41667 9.70275 3.41667 9.54167M4 9.54167C4 9.38058 3.86942 9.25 3.70833 9.25C3.54725 9.25 3.41667 9.38058 3.41667 9.54167M4 9.54167H3.41667M6.625 7.20833C6.625 7.36942 6.49442 7.5 6.33333 7.5C6.17225 7.5 6.04167 7.36942 6.04167 7.20833M6.625 7.20833C6.625 7.04725 6.49442 6.91667 6.33333 6.91667C6.17225 6.91667 6.04167 7.04725 6.04167 7.20833M6.625 7.20833H6.04167M6.625 9.54167C6.625 9.70275 6.49442 9.83333 6.33333 9.83333C6.17225 9.83333 6.04167 9.70275 6.04167 9.54167M6.625 9.54167C6.625 9.38058 6.49442 9.25 6.33333 9.25C6.17225 9.25 6.04167 9.38058 6.04167 9.54167M6.625 9.54167H6.04167M9.25 7.20833C9.25 7.36942 9.11942 7.5 8.95833 7.5C8.79725 7.5 8.66667 7.36942 8.66667 7.20833M9.25 7.20833C9.25 7.04725 9.11942 6.91667 8.95833 6.91667C8.79725 6.91667 8.66667 7.04725 8.66667 7.20833M9.25 7.20833H8.66667M9.25 9.54167C9.25 9.70275 9.11942 9.83333 8.95833 9.83333C8.79725 9.83333 8.66667 9.70275 8.66667 9.54167M9.25 9.54167C9.25 9.38058 9.11942 9.25 8.95833 9.25C8.79725 9.25 8.66667 9.38058 8.66667 9.54167M9.25 9.54167H8.66667M3.7 12.75H8.96667C10.0868 12.75 10.6468 12.75 11.0746 12.532C11.451 12.3403 11.7569 12.0343 11.9487 11.658C12.1667 11.2302 12.1667 10.6701 12.1667 9.55V4.28333C12.1667 3.16323 12.1667 2.60318 11.9487 2.17535C11.7569 1.79903 11.451 1.49307 11.0746 1.30132C10.6468 1.08333 10.0868 1.08333 8.96666 1.08333H3.7C2.5799 1.08333 2.01984 1.08333 1.59202 1.30132C1.21569 1.49307 0.909734 1.79903 0.717987 2.17535C0.5 2.60318 0.5 3.16323 0.5 4.28334V9.55C0.5 10.6701 0.5 11.2302 0.717987 11.658C0.909734 12.0343 1.21569 12.3403 1.59202 12.532C2.01984 12.75 2.5799 12.75 3.7 12.75Z" stroke="#385052" stroke-linecap="round" stroke-linejoin="round"/>
</svg>
