<svg width="10" height="10" viewBox="0 0 10 10" fill="none" xmlns="http://www.w3.org/2000/svg">
<path d="M7.856 1.65389H6.20211V1.24042C6.20211 0.911441 6.07142 0.595935 5.83879 0.363311C5.60617 0.130687 5.29066 0 4.96168 0C4.6327 0 4.3172 0.130687 4.08457 0.363311C3.85195 0.595935 3.72126 0.911441 3.72126 1.24042V1.65389H2.06737C1.51927 1.65455 0.993808 1.87257 0.606243 2.26014C0.218679 2.6477 0.000656537 3.17316 0 3.72126L0 7.856C0.000656537 8.4041 0.218679 8.92956 0.606243 9.31713C0.993808 9.70469 1.51927 9.92271 2.06737 9.92337H7.856C8.4041 9.92271 8.92956 9.70469 9.31713 9.31713C9.70469 8.92956 9.92271 8.4041 9.92337 7.856V3.72126C9.92271 3.17316 9.70469 2.6477 9.31713 2.26014C8.92956 1.87257 8.4041 1.65455 7.856 1.65389ZM4.54821 1.24042C4.54821 1.13076 4.59177 1.02559 4.66931 0.948051C4.74686 0.87051 4.85202 0.826947 4.96168 0.826947C5.07134 0.826947 5.17651 0.87051 5.25405 0.948051C5.3316 1.02559 5.37516 1.13076 5.37516 1.24042V2.06737C5.37516 2.17703 5.3316 2.2822 5.25405 2.35974C5.17651 2.43728 5.07134 2.48084 4.96168 2.48084C4.85202 2.48084 4.74686 2.43728 4.66931 2.35974C4.59177 2.2822 4.54821 2.17703 4.54821 2.06737V1.24042ZM9.09642 7.856C9.09642 8.18498 8.96573 8.50049 8.73311 8.73311C8.50049 8.96573 8.18498 9.09642 7.856 9.09642H2.06737C1.73839 9.09642 1.42288 8.96573 1.19026 8.73311C0.957634 8.50049 0.826947 8.18498 0.826947 7.856V3.72126C0.826947 3.39228 0.957634 3.07678 1.19026 2.84415C1.42288 2.61153 1.73839 2.48084 2.06737 2.48084H3.79734C3.88155 2.72254 4.03888 2.93204 4.24751 3.08028C4.45614 3.22853 4.70574 3.30818 4.96168 3.30818C5.21763 3.30818 5.46722 3.22853 5.67586 3.08028C5.88449 2.93204 6.04182 2.72254 6.12603 2.48084H7.856C8.18498 2.48084 8.50049 2.61153 8.73311 2.84415C8.96573 3.07678 9.09642 3.39228 9.09642 3.72126V7.856ZM4.13474 4.13474H2.06737C1.95771 4.13474 1.85254 4.1783 1.775 4.25584C1.69746 4.33338 1.65389 4.43855 1.65389 4.54821V7.856C1.65389 7.96566 1.69746 8.07083 1.775 8.14837C1.85254 8.22591 1.95771 8.26947 2.06737 8.26947H4.13474C4.2444 8.26947 4.34957 8.22591 4.42711 8.14837C4.50465 8.07083 4.54821 7.96566 4.54821 7.856V4.54821C4.54821 4.43855 4.50465 4.33338 4.42711 4.25584C4.34957 4.1783 4.2444 4.13474 4.13474 4.13474ZM3.72126 7.44253H2.48084V4.96168H3.72126V7.44253ZM8.26947 6.20211C8.26947 6.31177 8.22591 6.41693 8.14837 6.49448C8.07083 6.57202 7.96566 6.61558 7.856 6.61558H5.78863C5.67897 6.61558 5.5738 6.57202 5.49626 6.49448C5.41872 6.41693 5.37516 6.31177 5.37516 6.20211C5.37516 6.09245 5.41872 5.98728 5.49626 5.90974C5.5738 5.83219 5.67897 5.78863 5.78863 5.78863H7.856C7.96566 5.78863 8.07083 5.83219 8.14837 5.90974C8.22591 5.98728 8.26947 6.09245 8.26947 6.20211ZM8.26947 4.54821C8.26947 4.65787 8.22591 4.76304 8.14837 4.84058C8.07083 4.91812 7.96566 4.96168 7.856 4.96168H5.78863C5.67897 4.96168 5.5738 4.91812 5.49626 4.84058C5.41872 4.76304 5.37516 4.65787 5.37516 4.54821C5.37516 4.43855 5.41872 4.33338 5.49626 4.25584C5.5738 4.1783 5.67897 4.13474 5.78863 4.13474H7.856C7.96566 4.13474 8.07083 4.1783 8.14837 4.25584C8.22591 4.33338 8.26947 4.43855 8.26947 4.54821ZM7.44253 7.856C7.44253 7.96566 7.39896 8.07083 7.32142 8.14837C7.24388 8.22591 7.13871 8.26947 7.02905 8.26947H5.78863C5.67897 8.26947 5.5738 8.22591 5.49626 8.14837C5.41872 8.07083 5.37516 7.96566 5.37516 7.856C5.37516 7.74634 5.41872 7.64117 5.49626 7.56363C5.5738 7.48609 5.67897 7.44253 5.78863 7.44253H7.02905C7.13871 7.44253 7.24388 7.48609 7.32142 7.56363C7.39896 7.64117 7.44253 7.74634 7.44253 7.856Z" fill="#414E75"/>
</svg>
