<svg width="15" height="15" viewBox="0 0 15 15" fill="none" xmlns="http://www.w3.org/2000/svg">
<g clip-path="url(#clip0_4237_1259)">
<path d="M11.1662 1.69206H10.5805V1.10872C10.5805 0.786724 10.3186 0.525391 9.99471 0.525391C9.67079 0.525391 9.40896 0.786724 9.40896 1.10872V1.69206H4.72291V1.10872C4.72291 0.786724 4.46108 0.525391 4.13715 0.525391C3.81323 0.525391 3.5514 0.786724 3.5514 1.10872V1.69206H2.96564C1.35072 1.69206 0.0368652 3.00047 0.0368652 4.60872V11.6087C0.0368652 13.217 1.35072 14.5254 2.96564 14.5254H11.1662C12.7812 14.5254 14.095 13.217 14.095 11.6087V4.60872C14.095 3.00047 12.7812 1.69206 11.1662 1.69206ZM2.96564 2.85872H11.1662C12.1351 2.85872 12.9235 3.64389 12.9235 4.60872V5.19206H1.20838V4.60872C1.20838 3.64389 1.9968 2.85872 2.96564 2.85872ZM11.1662 13.3587H2.96564C1.9968 13.3587 1.20838 12.5736 1.20838 11.6087V6.35872H12.9235V11.6087C12.9235 12.5736 12.1351 13.3587 11.1662 13.3587ZM11.1662 8.69206C11.1662 9.01406 10.9044 9.27539 10.5805 9.27539H3.5514C3.22748 9.27539 2.96564 9.01406 2.96564 8.69206C2.96564 8.37006 3.22748 8.10872 3.5514 8.10872H10.5805C10.9044 8.10872 11.1662 8.37006 11.1662 8.69206ZM7.06593 11.0254C7.06593 11.3474 6.8041 11.6087 6.48018 11.6087H3.5514C3.22748 11.6087 2.96564 11.3474 2.96564 11.0254C2.96564 10.7034 3.22748 10.4421 3.5514 10.4421H6.48018C6.8041 10.4421 7.06593 10.7034 7.06593 11.0254Z" fill="#414E75"/>
</g>
<defs>
<clipPath id="clip0_4237_1259">
<rect width="14.0581" height="14" fill="white" transform="translate(0.0368652 0.525391)"/>
</clipPath>
</defs>
</svg>
