<svg width="14" height="15" viewBox="0 0 14 15" fill="none" xmlns="http://www.w3.org/2000/svg">
<path d="M8.23738 7.86116C8.23832 8.06618 8.18498 8.26782 8.08275 8.44577C7.98053 8.62372 7.83302 8.77171 7.65508 8.87481C7.47714 8.97792 7.27507 9.03252 7.0692 9.0331C6.86333 9.03368 6.66095 8.98022 6.48243 8.87812C6.30391 8.77601 6.15556 8.62886 6.05233 8.45149C5.94909 8.27412 5.89461 8.07278 5.89437 7.86777C5.89414 7.66275 5.94816 7.46129 6.05099 7.28369C6.15382 7.10608 6.30183 6.95859 6.48012 6.85608V4.36117C6.48012 4.20646 6.54183 4.05808 6.65168 3.94869C6.76153 3.83929 6.91052 3.77783 7.06587 3.77783C7.22123 3.77783 7.37021 3.83929 7.48006 3.94869C7.58992 4.05808 7.65163 4.20646 7.65163 4.36117V6.85608C7.82918 6.95776 7.97677 7.10414 8.07958 7.28055C8.18239 7.45696 8.23681 7.6572 8.23738 7.86116ZM11.7871 3.50891C12.6405 4.42404 13.2072 5.5673 13.4178 6.7985C13.6283 8.02971 13.4734 9.29533 12.9722 10.4402C12.4709 11.585 11.6451 12.5593 10.596 13.2435C9.54684 13.9278 8.31999 14.2923 7.06587 14.2923C5.81176 14.2923 4.58491 13.9278 3.53577 13.2435C2.48662 12.5593 1.6608 11.585 1.15956 10.4402C0.658328 9.29533 0.503472 8.02971 0.713986 6.7985C0.9245 5.5673 1.49123 4.42404 2.34468 3.50891L1.95106 3.07316C1.71256 3.15677 1.46113 3.19784 1.20832 3.1945C1.05297 3.1945 0.903976 3.13304 0.794126 3.02364C0.684275 2.91425 0.622562 2.76587 0.622562 2.61117C0.622562 2.45646 0.684275 2.30808 0.794126 2.19869C0.903976 2.08929 1.05297 2.02783 1.20832 2.02783C1.66814 2.02783 1.79407 1.90242 1.79407 1.4445C1.79407 1.28979 1.85579 1.14142 1.96564 1.03202C2.07549 0.922623 2.22448 0.861165 2.37983 0.861165C2.53518 0.861165 2.68417 0.922623 2.79402 1.03202C2.90387 1.14142 2.96558 1.28979 2.96558 1.4445C2.969 1.72837 2.91315 2.00984 2.80157 2.27108L3.21512 2.72842C4.16527 2.01633 5.2959 1.58202 6.48012 1.47425V0.861165C6.48012 0.706456 6.54183 0.558083 6.65168 0.448686C6.76153 0.33929 6.91052 0.277832 7.06587 0.277832C7.22123 0.277832 7.37021 0.33929 7.48006 0.448686C7.58992 0.558083 7.65163 0.706456 7.65163 0.861165V1.47425C8.83579 1.58185 9.96641 2.01595 10.9166 2.72783L11.3302 2.2705C11.2187 2.00944 11.1628 1.72817 11.1662 1.4445C11.1662 1.28979 11.2279 1.14142 11.3377 1.03202C11.4476 0.922623 11.5966 0.861165 11.7519 0.861165C11.9073 0.861165 12.0563 0.922623 12.1661 1.03202C12.276 1.14142 12.3377 1.28979 12.3377 1.4445C12.3377 1.90242 12.4636 2.02783 12.9234 2.02783C13.0788 2.02783 13.2278 2.08929 13.3376 2.19869C13.4475 2.30808 13.5092 2.45646 13.5092 2.61117C13.5092 2.76587 13.4475 2.91425 13.3376 3.02364C13.2278 3.13304 13.0788 3.1945 12.9234 3.1945C12.6706 3.19784 12.4192 3.15677 12.1807 3.07316L11.7871 3.50891ZM12.3377 7.86116C12.3377 6.82281 12.0285 5.80778 11.4492 4.94442C10.8699 4.08106 10.0466 3.40816 9.0833 3.0108C8.12001 2.61344 7.06003 2.50947 6.0374 2.71204C5.01477 2.91461 4.07542 3.41463 3.33815 4.14885C2.60087 4.88308 2.09878 5.81854 1.89537 6.83694C1.69196 7.85534 1.79636 8.91094 2.19537 9.87025C2.59438 10.8296 3.27008 11.6495 4.13702 12.2264C5.00396 12.8033 6.02321 13.1112 7.06587 13.1112C8.46357 13.1096 9.80357 12.556 10.7919 11.5718C11.7802 10.5875 12.3361 9.25308 12.3377 7.86116Z" fill="#414E75"/>
</svg>
