<svg width="10" height="10" viewBox="0 0 10 10" fill="none" xmlns="http://www.w3.org/2000/svg">
<g clip-path="url(#clip0_4297_37)">
<path d="M4.96176 2.48145C4.63465 2.48145 4.31488 2.57844 4.0429 2.76018C3.77092 2.94191 3.55894 3.20021 3.43376 3.50242C3.30858 3.80463 3.27583 4.13717 3.33964 4.458C3.40346 4.77882 3.56098 5.07352 3.79228 5.30482C4.02358 5.53612 4.31827 5.69364 4.6391 5.75746C4.95992 5.82127 5.29247 5.78852 5.59468 5.66334C5.89689 5.53816 6.15519 5.32618 6.33692 5.05419C6.51865 4.78221 6.61565 4.46245 6.61565 4.13534C6.61565 3.6967 6.4414 3.27603 6.13124 2.96586C5.82107 2.65569 5.4004 2.48145 4.96176 2.48145ZM4.96176 4.96229C4.7982 4.96229 4.63832 4.91379 4.50233 4.82292C4.36634 4.73206 4.26035 4.6029 4.19776 4.4518C4.13517 4.30069 4.11879 4.13442 4.1507 3.97401C4.18261 3.8136 4.26137 3.66625 4.37702 3.5506C4.49267 3.43495 4.64002 3.35619 4.80043 3.32428C4.96084 3.29237 5.12711 3.30875 5.27822 3.37134C5.42932 3.43393 5.55847 3.53992 5.64934 3.67591C5.74021 3.8119 5.7887 3.97179 5.7887 4.13534C5.7887 4.35466 5.70158 4.565 5.5465 4.72008C5.39141 4.87516 5.18108 4.96229 4.96176 4.96229Z" fill="#414E75"/>
<path d="M4.96177 9.92371C4.6136 9.92549 4.27007 9.84383 3.95995 9.68557C3.64983 9.52731 3.38213 9.29704 3.17928 9.01407C1.60354 6.84044 0.804291 5.20639 0.804291 4.15699C0.804291 3.05436 1.24231 1.99689 2.02199 1.21721C2.80167 0.437531 3.85914 -0.000488281 4.96177 -0.000488281C6.0644 -0.000488281 7.12187 0.437531 7.90155 1.21721C8.68123 1.99689 9.11925 3.05436 9.11925 4.15699C9.11925 5.20639 8.32 6.84044 6.74425 9.01407C6.54141 9.29704 6.27371 9.52731 5.96359 9.68557C5.65347 9.84383 5.30994 9.92549 4.96177 9.92371ZM4.96177 0.902125C4.09861 0.90311 3.27108 1.24644 2.66073 1.85678C2.05039 2.46713 1.70706 3.29466 1.70608 4.15782C1.70608 4.9889 2.48878 6.52578 3.90948 8.48523C4.03009 8.65136 4.18831 8.78657 4.37121 8.8798C4.55411 8.97303 4.75648 9.02163 4.96177 9.02163C5.16706 9.02163 5.36943 8.97303 5.55233 8.8798C5.73523 8.78657 5.89345 8.65136 6.01406 8.48523C7.43476 6.52578 8.21746 4.9889 8.21746 4.15782C8.21648 3.29466 7.87315 2.46713 7.2628 1.85678C6.65246 1.24644 5.82493 0.90311 4.96177 0.902125Z" fill="#414E75"/>
</g>
<defs>
<clipPath id="clip0_4297_37">
<rect width="9.92337" height="9.92337" fill="white"/>
</clipPath>
</defs>
</svg>
