<svg width="22" height="22" viewBox="0 0 22 22" fill="none" xmlns="http://www.w3.org/2000/svg">
<path fill-rule="evenodd" clip-rule="evenodd" d="M1.06934 15.4307C1.04299 15.3744 1.01675 15.3184 0.99087 15.2625C0.354823 13.8895 0 12.3602 0 10.75C0 4.81294 4.81294 0 10.75 0C16.6871 0 21.5 4.81294 21.5 10.75C21.5 16.6871 16.6871 21.5 10.75 21.5C9.53598 21.5 8.47211 21.3265 7.47366 20.9694C6.58036 20.6498 6.21428 20.5205 6.10382 20.4945C5.43259 20.3366 4.7971 20.6425 4.16652 20.946C3.75937 21.142 3.35427 21.337 2.9429 21.4055C1.81842 21.5929 0.817865 20.6722 0.911181 19.5361C0.944521 19.1301 1.10166 18.7832 1.25977 18.4342C1.36162 18.2093 1.46389 17.9836 1.53372 17.7406C1.76855 16.9234 1.41113 16.1603 1.06934 15.4307ZM9.5 8.75C9.5 8.05964 10.0596 7.5 10.75 7.5C11.4404 7.5 12 8.05964 12 8.75V8.87132C12 9.23502 11.8555 9.58382 11.5983 9.84099L10.2197 11.2197C9.92678 11.5126 9.92678 11.9874 10.2197 12.2803C10.5126 12.5732 10.9874 12.5732 11.2803 12.2803L12.659 10.9017C13.1975 10.3632 13.5 9.63284 13.5 8.87132V8.75C13.5 7.23122 12.2688 6 10.75 6C9.23122 6 8 7.23122 8 8.75V9.25C8 9.66421 8.33579 10 8.75 10C9.16421 10 9.5 9.66421 9.5 9.25V8.75ZM10.75 13.5C10.0596 13.5 9.5 14.0596 9.5 14.75C9.5 15.4404 10.0596 16 10.75 16C11.4404 16 12 15.4404 12 14.75C12 14.0596 11.4404 13.5 10.75 13.5Z" fill="#52383C"/>
</svg>
