<svg width="14" height="14" viewBox="0 0 14 14" fill="none" xmlns="http://www.w3.org/2000/svg">
<g clip-path="url(#clip0_1256_6383)">
<path d="M6.99996 1.16658C7.77375 1.16912 8.53936 1.3251 9.25248 1.62548C9.9656 1.92587 10.6121 2.3647 11.1545 2.91658H9.33329C9.17858 2.91658 9.03021 2.97804 8.92081 3.08744C8.81141 3.19683 8.74996 3.34521 8.74996 3.49992C8.74996 3.65463 8.81141 3.803 8.92081 3.9124C9.03021 4.02179 9.17858 4.08325 9.33329 4.08325H11.75C12.0373 4.0831 12.3127 3.96892 12.5158 3.7658C12.719 3.56269 12.8331 3.28725 12.8333 3V0.58325C12.8333 0.428541 12.7718 0.280167 12.6624 0.170771C12.553 0.061375 12.4047 -8.31615e-05 12.25 -8.31615e-05C12.0952 -8.31615e-05 11.9469 0.061375 11.8375 0.170771C11.7281 0.280167 11.6666 0.428541 11.6666 0.58325V1.79542C10.7025 0.927098 9.51563 0.344323 8.23901 0.112354C6.96239 -0.119615 5.6464 0.00838214 4.43841 0.482011C3.23042 0.95564 2.17813 1.7562 1.39938 2.79404C0.620626 3.83188 0.146163 5.06602 0.029122 6.35825C0.0215873 6.43948 0.0310562 6.5214 0.0569254 6.59877C0.0827946 6.67614 0.124497 6.74728 0.179375 6.80764C0.234253 6.86801 0.301104 6.91628 0.375668 6.94938C0.450231 6.98249 0.530873 6.9997 0.612455 6.99992C0.755132 7.00174 0.89335 6.95024 1.00006 6.85551C1.10676 6.76078 1.17427 6.62964 1.18937 6.48775C1.31923 5.03569 1.98736 3.68466 3.0625 2.70007C4.13765 1.71548 5.5421 1.1685 6.99996 1.16658Z" fill="#0D3F47"/>
<path d="M13.388 7.00005C13.2454 6.99823 13.1071 7.04972 13.0004 7.14445C12.8937 7.23918 12.8262 7.37033 12.8111 7.51221C12.7147 8.62243 12.3018 9.68169 11.6215 10.5643C10.9412 11.447 10.022 12.1159 8.97288 12.4919C7.9238 12.8678 6.78891 12.9349 5.70283 12.6853C4.61675 12.4356 3.62508 11.8797 2.84546 11.0834H4.66663C4.82134 11.0834 4.96971 11.0219 5.0791 10.9125C5.1885 10.8031 5.24996 10.6548 5.24996 10.5C5.24996 10.3453 5.1885 10.197 5.0791 10.0876C4.96971 9.97817 4.82134 9.91671 4.66663 9.91671H2.24988C2.1076 9.91664 1.9667 9.9446 1.83524 9.99901C1.70378 10.0534 1.58434 10.1332 1.48373 10.2338C1.38313 10.3344 1.30334 10.4539 1.24893 10.5853C1.19452 10.7168 1.16655 10.8577 1.16663 11V13.4167C1.16663 13.5714 1.22808 13.7198 1.33748 13.8292C1.44688 13.9386 1.59525 14 1.74996 14C1.90467 14 2.05304 13.9386 2.16244 13.8292C2.27183 13.7198 2.33329 13.5714 2.33329 13.4167V12.2045C3.29744 13.0729 4.48428 13.6556 5.7609 13.8876C7.03752 14.1196 8.35351 13.9916 9.5615 13.518C10.7695 13.0443 11.8218 12.2438 12.6005 11.2059C13.3793 10.1681 13.8538 8.93395 13.9708 7.64171C13.9783 7.56048 13.9689 7.47857 13.943 7.4012C13.9171 7.32382 13.8754 7.25269 13.8205 7.19232C13.7657 7.13196 13.6988 7.08368 13.6242 7.05058C13.5497 7.01747 13.4696 7.00026 13.388 7.00005Z" fill="#0D3F47"/>
</g>
<defs>
<clipPath id="clip0_1256_6383">
<rect width="14" height="14" fill="white"/>
</clipPath>
</defs>
</svg>
