<svg width="16" height="16" viewBox="0 0 16 16" fill="none" xmlns="http://www.w3.org/2000/svg">
<path d="M12.8 11.2949C12.7324 11.8422 12.7022 12.0798 12.4495 12.6133L8.5686 13.4141C8.6578 12.8375 8.77672 12.3927 8.96997 12.126L12.8 11.2949ZM7.39478 7.52051L8.55396 7.26953V3.60547C8.98604 3.12045 9.25213 2.90225 9.77368 2.62695V7.00391L12.8 6.34766C12.7324 6.89495 12.7022 7.13252 12.4495 7.66602L9.77368 8.23145V9.46191L12.8 8.82129C12.7324 9.36858 12.7022 9.60615 12.4495 10.1396L9.77368 10.6914V10.7031L8.55396 10.9551V8.48926L7.39478 8.7334V10.2891L7.37329 10.293C7.10661 10.7604 6.73106 11.3223 6.36841 11.7705L2.55981 12.4961C2.59396 12.0061 2.66542 11.7299 2.88696 11.2363L6.17505 10.5225V8.99219L3.1272 9.63672C3.16135 9.14667 3.23276 8.87055 3.45435 8.37695L6.17505 7.78516V2.92383C6.60713 2.4388 6.87323 2.22061 7.39478 1.94531V7.52051Z" fill="#289CA5"/>
</svg>
