<svg width="11" height="12" viewBox="0 0 11 12" fill="none" xmlns="http://www.w3.org/2000/svg">
<path d="M10.2402 9.34961C10.1726 9.8969 10.1424 10.1345 9.88965 10.668L6.00879 11.4688C6.09799 10.8922 6.2169 10.4474 6.41016 10.1807L10.2402 9.34961ZM4.83496 5.5752L5.99414 5.32422V1.66016C6.42622 1.17513 6.69232 0.956942 7.21387 0.681641V5.05859L10.2402 4.40234C10.1726 4.94964 10.1424 5.18721 9.88965 5.7207L7.21387 6.28613V7.5166L10.2402 6.87598C10.1726 7.42327 10.1424 7.66084 9.88965 8.19434L7.21387 8.74609V8.75781L5.99414 9.00977V6.54395L4.83496 6.78809V8.34375L4.81348 8.34766C4.5468 8.81513 4.17125 9.37697 3.80859 9.8252L0 10.5508C0.0341473 10.0608 0.105602 9.78454 0.327148 9.29102L3.61523 8.57715V7.04688L0.567383 7.69141C0.601533 7.20136 0.672943 6.92524 0.894531 6.43164L3.61523 5.83984V0.978516C4.04732 0.493492 4.31341 0.275301 4.83496 0V5.5752Z" fill="white"/>
</svg>
