<svg width="15" height="15" viewBox="0 0 15 15" fill="none" xmlns="http://www.w3.org/2000/svg">
<path d="M12.5637 1.8206C12.4916 1.51239 12.3574 1.222 12.1692 0.967074C11.9809 0.712149 11.7426 0.49802 11.4686 0.337709C11.1947 0.177397 10.8908 0.0742543 10.5756 0.0345519C10.2603 -0.00515053 9.94028 0.0194174 9.63487 0.106762L8.62503 0.394345C8.36922 0.467565 8.1336 0.598056 7.93618 0.775845C7.73876 0.598056 7.50314 0.467565 7.24733 0.394345L6.23749 0.106762C5.93227 0.0198726 5.61251 -0.00434505 5.2976 0.0355785C4.9827 0.0755021 4.67923 0.178734 4.40561 0.339009C4.13199 0.499284 3.89393 0.713258 3.70587 0.967945C3.51782 1.22263 3.38369 1.51272 3.31163 1.8206C2.6379 1.94267 2.02841 2.29599 1.58912 2.81914C1.14983 3.3423 0.908508 4.00222 0.907104 4.68418L0.907104 8.76751C0.908035 9.54078 1.2169 10.2821 1.76595 10.8289C2.315 11.3757 3.05941 11.6833 3.83589 11.6842H7.35042V12.8508H5.59315C5.4378 12.8508 5.28881 12.9123 5.17896 13.0217C5.06911 13.1311 5.0074 13.2795 5.0074 13.4342C5.0074 13.5889 5.06911 13.7373 5.17896 13.8467C5.28881 13.9561 5.4378 14.0175 5.59315 14.0175H10.2792C10.4346 14.0175 10.5835 13.9561 10.6934 13.8467C10.8032 13.7373 10.865 13.5889 10.865 13.4342C10.865 13.2795 10.8032 13.1311 10.6934 13.0217C10.5835 12.9123 10.4346 12.8508 10.2792 12.8508H8.52194V11.6842H12.0365C12.813 11.6833 13.5574 11.3757 14.1064 10.8289C14.6555 10.2821 14.9643 9.54078 14.9653 8.76751V4.68418C14.964 4.00263 14.7231 3.34305 14.2844 2.81995C13.8457 2.29686 13.2369 1.94327 12.5637 1.8206ZM8.52194 2.07726C8.52199 1.95057 8.56346 1.82734 8.64008 1.7262C8.7167 1.62507 8.8243 1.55152 8.94661 1.51668L9.95704 1.2291C10.1314 1.17943 10.315 1.17075 10.4933 1.20376C10.6716 1.23676 10.8398 1.31054 10.9846 1.41929C11.1294 1.52804 11.2469 1.66878 11.3277 1.83043C11.4086 1.99209 11.4507 2.17023 11.4507 2.35085V4.64801C11.4499 4.90115 11.3667 5.1472 11.2135 5.34925C11.0604 5.55129 10.8456 5.69844 10.6014 5.7686L8.52194 6.3601V2.07726ZM4.89025 1.41751C5.03477 1.30916 5.2026 1.23574 5.38049 1.20304C5.55839 1.17034 5.74148 1.17926 5.91532 1.2291L6.92575 1.51668C7.04806 1.55152 7.15566 1.62507 7.23228 1.7262C7.3089 1.82734 7.35037 1.95057 7.35042 2.07726V6.3601L5.27099 5.7686C5.02676 5.69844 4.81195 5.55129 4.65881 5.34925C4.50567 5.1472 4.42245 4.90115 4.42164 4.64801V2.35085C4.42105 2.16962 4.46313 1.99078 4.54451 1.82869C4.62589 1.6666 4.74431 1.52577 4.89025 1.41751ZM13.7937 8.76751C13.7937 9.23164 13.6086 9.67676 13.2791 10.005C12.9495 10.3331 12.5025 10.5175 12.0365 10.5175H3.83589C3.36983 10.5175 2.92286 10.3331 2.59331 10.005C2.26376 9.67676 2.07862 9.23164 2.07862 8.76751V4.68418C2.08012 4.32353 2.19347 3.97215 2.40318 3.6781C2.61288 3.38406 2.90869 3.16173 3.25013 3.04151V4.64801C3.25156 5.15454 3.4179 5.64695 3.72418 6.05136C4.03046 6.45576 4.46017 6.75035 4.94882 6.89093L6.97027 7.46668C7.60202 7.64602 8.27151 7.64602 8.90326 7.46668L10.9247 6.89093C11.4131 6.75014 11.8426 6.45546 12.1486 6.05108C12.4547 5.64669 12.6209 5.15439 12.6222 4.64801V3.04151C12.9637 3.16173 13.2595 3.38406 13.4692 3.6781C13.6789 3.97215 13.7922 4.32353 13.7937 4.68418V8.76751Z" fill="#414E75"/>
</svg>
